<svg xmlns="http://www.w3.org/2000/svg" viewBox="0 0 800 460" preserveAspectRatio="xMidYMid meet" width="800" height="460" font-family="-apple-system, BlinkMacSystemFont, 'SF Pro Display', sans-serif">
  <defs>
    <filter id="cardShadow" x="-20%" y="-20%" width="140%" height="140%">
      <feDropShadow dx="0" dy="2" stdDeviation="3" flood-color="#000" flood-opacity="0.08"/>
    </filter>
    <marker id="arrow" viewBox="0 0 10 10" refX="9" refY="5" markerWidth="8" markerHeight="8" orient="auto">
      <path d="M0,0 L10,5 L0,10 z" fill="#0066cc"/>
    </marker>
  </defs>

  <style>
    .num-circle { fill: #0066cc; }
    .num-text { fill: #ffffff; font-size: 20px; font-weight: 700; }
    .box { fill: #ffffff; stroke: #d2d2d7; stroke-width: 1.2; }
    .box-blue { fill: #ffffff; stroke: #0066cc; stroke-width: 2.2; }
    .title-text { font-size: 16px; font-weight: 600; fill: #1d1d1f; }
    .body-text { font-size: 12px; font-weight: 400; fill: #6e6e73; }
    .center-label { font-size: 13px; font-weight: 700; fill: #0066cc; letter-spacing: 2px; }
    .center-sub { font-size: 10px; font-weight: 500; fill: #6e6e73; letter-spacing: 0.5px; }
    .caption { font-size: 11px; font-weight: 500; fill: #86868b; font-family: ui-monospace, 'SF Mono', Menlo, monospace; }
    .arrow-loop { stroke: #0066cc; stroke-width: 2.2; fill: none; }
  </style>

  <rect width="800" height="460" fill="#ffffff"/>

  <!-- Center label -->
  <g transform="translate(400, 230)">
    <circle r="55" fill="rgba(0,102,204,0.06)" stroke="#0066cc" stroke-width="1.2" stroke-dasharray="4,3"/>
    <text text-anchor="middle" y="-6" class="center-label">COMPOUND</text>
    <text text-anchor="middle" y="12" class="center-label">LOOP</text>
    <text text-anchor="middle" y="30" class="center-sub">each iteration</text>
    <text text-anchor="middle" y="42" class="center-sub">runs faster</text>
  </g>

  <!-- ① Top: Run the workflow (centered at x=400, y=80) -->
  <g transform="translate(400, 80)" filter="url(#cardShadow)">
    <rect x="-110" y="-30" width="220" height="60" rx="12" class="box"/>
    <circle cx="-90" cy="0" r="16" class="num-circle"/>
    <text x="-90" y="5" text-anchor="middle" class="num-text">1</text>
    <text x="-65" y="-3" class="title-text">Run the workflow</text>
    <text x="-65" y="14" class="body-text">do the task · ship</text>
  </g>

  <!-- ② Right: Write the manual (centered at x=620, y=230) - moved in to fit -->
  <g transform="translate(620, 230)" filter="url(#cardShadow)">
    <rect x="-90" y="-32" width="180" height="64" rx="12" class="box-blue"/>
    <circle cx="-70" cy="0" r="16" class="num-circle"/>
    <text x="-70" y="5" text-anchor="middle" class="num-text">2</text>
    <text x="-45" y="-3" class="title-text">Write the manual</text>
    <text x="-45" y="14" class="body-text">SKILL.md updated</text>
  </g>

  <!-- ③ Bottom: Next run is faster (centered at x=400, y=380) -->
  <g transform="translate(400, 380)" filter="url(#cardShadow)">
    <rect x="-115" y="-30" width="230" height="60" rx="12" class="box"/>
    <circle cx="-95" cy="0" r="16" class="num-circle"/>
    <text x="-95" y="5" text-anchor="middle" class="num-text">3</text>
    <text x="-70" y="-3" class="title-text">Next run is faster</text>
    <text x="-70" y="14" class="body-text">less time · fewer mistakes</text>
  </g>

  <!-- ④ Left: More loops (centered at x=180, y=230) -->
  <g transform="translate(180, 230)" filter="url(#cardShadow)">
    <rect x="-90" y="-32" width="180" height="64" rx="12" class="box"/>
    <circle cx="-70" cy="0" r="16" class="num-circle"/>
    <text x="-70" y="5" text-anchor="middle" class="num-text">4</text>
    <text x="-45" y="-3" class="title-text">More loops</text>
    <text x="-45" y="14" class="body-text">adds a line to manual</text>
  </g>

  <!-- Arrows: ① → ② -->
  <path d="M 470 110 Q 560 150 580 195" class="arrow-loop" marker-end="url(#arrow)"/>

  <!-- Arrows: ② → ③ -->
  <path d="M 580 265 Q 560 310 470 350" class="arrow-loop" marker-end="url(#arrow)"/>

  <!-- Arrows: ③ → ④ -->
  <path d="M 330 350 Q 240 310 220 265" class="arrow-loop" marker-end="url(#arrow)"/>

  <!-- Arrows: ④ → ① -->
  <path d="M 220 195 Q 240 150 330 110" class="arrow-loop" marker-end="url(#arrow)"/>

  <!-- Bottom caption -->
  <text x="400" y="445" text-anchor="middle" class="caption">manual cost: minutes  ·  brain cost without manual: hours</text>

</svg>